# xmcd
#
# Track frame offsets:
#       150
#       17255
#       33905
#       46410
#       59642
#       73302
#       87800
#       106160
#       119452
#       133370
#       148717
#       162082
#       179897
#       195832
#       210640
#       224550
#       241205
#       256427
#       273067
#       289830
#       307477
#
# Disc length: 4323 seconds
#
# Revision: 0
# Processed by: cddbd v1.4PL0 Copyright (c) Steve Scherf et al.
# Submitted via: WhereIsIt 3.26
#
DISCID=4710e115
DTITLE=Various Artist - Das grosse Deutsche Country Festival [CD 2)
DYEAR=1900
DGENRE=
TTITLE0=Freddy Quinn - Gib mir ein Zuhaus
TTITLE1=Tom Astor - Freundschaft
TTITLE2=Jonny Hill - 500 Meilen von zu Haus
TTITLE3=Gudrun Lange and Suzy Bogguss and Kactus - Yellow River Road
TTITLE4=Volker Lechtenbrink - Meine Tür steht immer offen
TTITLE5=Linda Feller - Appartment 94
TTITLE6=Jonny Hill - Sylvias Mutter
TTITLE7=Freddy Quinn - Green, Green Grass of Home
TTITLE8=Tom Astor - Ich bin kein Dichter, kein Poet
TTITLE9=Joe Hodgkins Boss Band - Nimm dir Zeit für Deine Freunde
TTITLE10=Jonny Hill - Ruby, mach's mir doch nicht so schwer
TTITLE11=Max Zwo - Bayrischer Kauboi
TTITLE12=Linda Feller - Engel lieben meist die Falschen
TTITLE13=Tennessee - Ein Liebeslied
TTITLE14=Tom Astor and Ralf Paulsen - Verdammt, mein Sohn hat dein Gesicht
TTITLE15=Hanna and Daana - Küsse wie Feuer
TTITLE16=Volker Lechtenbrink - Lucille
TTITLE17=Freddy Quinn - Heute Nacht da brauch' ich dich
TTITLE18=Jonny Hill - Rosen für Mama
TTITLE19=Gunter Gabriel - Komm unter meine Decke
TTITLE20=Larry Schuba and Western Union - Danke
EXTD=
EXTT0=
EXTT1=
EXTT2=
EXTT3=
EXTT4=
EXTT5=
EXTT6=
EXTT7=
EXTT8=
EXTT9=
EXTT10=
EXTT11=
EXTT12=
EXTT13=
EXTT14=
EXTT15=
EXTT16=
EXTT17=
EXTT18=
EXTT19=
EXTT20=
PLAYORDER=
